<?xml version="1.0" encoding="UTF-8"?>
<svg width="40px" height="36px" viewBox="0 0 40 36" version="1.1" xmlns="http://www.w3.org/2000/svg" xmlns:xlink="http://www.w3.org/1999/xlink">
    <!-- Generator: Sketch 43.2 (39069) - http://www.bohemiancoding.com/sketch -->
    <title>Shape</title>
    <desc>Created with Sketch.</desc>
    <defs>
        <linearGradient x1="50%" y1="0%" x2="50%" y2="100%" id="linearGradient-1">
            <stop stop-color="#F88A36" offset="0%"></stop>
            <stop stop-color="#FD2020" offset="100%"></stop>
        </linearGradient>
    </defs>
    <g id="Page-1" stroke="none" stroke-width="1" fill="none" fill-rule="evenodd">
        <path d="M29.885,33.0469 C25.218,35.7429 18.801,36.0199 12.345,33.2529 C7.1177,31.0289 2.7804,27.1359 0,22.6879 C1.3346,23.7999 2.8916,24.6899 4.5598,25.4679 C11.227,28.5929 17.8928,28.3789 22.5838,25.4759 C22.5808,25.4729 22.5788,25.4709 22.5768,25.4679 C15.9038,20.3519 10.2318,13.6789 6.0058,8.2299 C5.1157,7.3401 4.4484,6.2279 3.7811,5.227 C8.897,9.898 17.0161,15.792 19.9071,17.461 C13.7911,11.01 8.3411,3.003 8.5631,3.225 C18.2391,13.012 27.2481,18.573 27.2481,18.573 C27.5461,18.741 27.7761,18.881 27.9611,19.006 C28.1561,18.51 28.3271,17.995 28.4711,17.461 C30.0281,11.789 28.2491,5.338 24.3561,0 C33.3641,5.4495 38.7031,15.681 36.4781,24.245 C36.4201,24.476 36.3571,24.704 36.2891,24.928 C36.3151,24.959 36.3411,24.991 36.3671,25.024 C40.8151,30.585 39.5921,36.479 39.0361,35.367 C36.6231,30.645 32.1561,32.089 29.8851,33.047 L29.885,33.0469 Z" id="Shape" fill="url(#linearGradient-1)" fill-rule="nonzero"></path>
    </g>
</svg>