<?xml version="1.0" encoding="UTF-8"?>
<svg width="98px" height="86px" viewBox="0 0 98 86" version="1.1" xmlns="http://www.w3.org/2000/svg" xmlns:xlink="http://www.w3.org/1999/xlink">
    <!-- Generator: Sketch 43.2 (39069) - http://www.bohemiancoding.com/sketch -->
    <title>Group 2</title>
    <desc>Created with Sketch.</desc>
    <defs></defs>
    <g id="Page-1" stroke="none" stroke-width="1" fill="none" fill-rule="evenodd">
        <g id="rocketswift-vertical-white" transform="translate(-2.000000, -7.000000)">
            <g id="Group-2" transform="translate(0.000000, 7.000000)">
                <g id="Group">
                    <path d="M15.717,49.6641196 C21.379,59.7281196 28.84,66.5071196 35.789,72.0301196 C36.364,68.8301196 38.054,66.7441196 40.52,65.4351196 C35.811,62.5881196 26.68,54.8531196 22.312,49.1961196 C13.14,37.3141196 12.993,26.4001196 20.4,22.4701196 C12.85,21.9581196 7.719,35.4521196 15.717,49.6641196 Z" id="Path-Copy" fill="#FFFFFF" transform="translate(26.101834, 47.243060) scale(-1, 1) rotate(-180.000000) translate(-26.101834, -47.243060) "></path>
                    <path d="M21.703,65.893 L20.716,65.845 L20.717,65.822 C21.046,65.837 21.374,65.861 21.703,65.893 Z" id="Path-Copy-2" fill="#000000" transform="translate(21.216000, 66.322000) scale(-1, 1) rotate(-180.000000) translate(-21.216000, -66.322000) "></path>
                    <path d="M32.131,63.428 L30.808,62.463 L30.83,62.463 L30.828,62.461 C31.274,62.763 31.709,63.086 32.131,63.428 Z" id="Path-Copy-3" fill="#000000" transform="translate(31.469500, 62.961000) scale(-1, 1) rotate(-180.000000) translate(-31.469500, -62.961000) "></path>
                    <path d="M36.754,56.6476743 C36.73,56.5986743 36.7,56.5536743 36.669,56.5096743 C36.535,56.2746743 36.601,56.3796743 36.754,56.6476743 Z" id="Path-Copy-4" fill="#000000" transform="translate(37.096666, 56.879337) scale(-1, 1) rotate(-180.000000) translate(-37.096666, -56.879337) "></path>
                    <path d="M1.979,38.097 L1.979,38.1 L2.472,39.157 C2.296,38.824 2.13,38.489 1.976,38.149 L1.979,38.097 Z" id="Path-Copy-6" fill="#000000" transform="translate(2.476000, 38.627000) scale(-1, 1) rotate(-180.000000) translate(-2.476000, -38.627000) "></path>
                    <path d="M3.047,37.303 C2.955,37.154 2.85,36.967 2.709,36.698 C2.817,36.914 2.936,37.126 3.047,37.303 Z" id="Path-Copy-7" fill="#000000" transform="translate(3.209000, 37.198000) scale(-1, 1) rotate(-180.000000) translate(-3.209000, -37.198000) "></path>
                    <path d="M3.233,36.369 C3.175,36.29 3.113,36.198 3.047,36.093 C3.112,36.198 3.171,36.284 3.233,36.369 Z" id="Path-Copy-8" fill="#000000" transform="translate(3.547000, 36.593000) scale(-1, 1) rotate(-180.000000) translate(-3.547000, -36.593000) "></path>
                    <path d="M4.007,35.452 L4.026,35.436 L4.007,35.453 C3.936,35.357 3.868,35.261 3.741,35.051 C3.817,35.19 3.911,35.322 4.007,35.452 Z" id="Path-Copy-9" fill="#000000" transform="translate(4.241000, 35.551000) scale(-1, 1) rotate(-180.000000) translate(-4.241000, -35.551000) "></path>
                    <path d="M5.885,34.791 C5.461,34.376 5.059,33.931 4.674,33.464 C5.059,33.932 5.461,34.376 5.885,34.791 Z" id="Path-Copy-10" fill="#000000" transform="translate(5.279500, 34.127500) scale(-1, 1) rotate(-180.000000) translate(-5.279500, -34.127500) "></path>
                    <path d="M44.051,34.125 L46.525,26.146 L43.86,26.768 C40.617,25.125 39.077,22.63 38.855,19.477 L40.377,17.232 L31.904,16.666 C33.757,12.936 37.758,9.006 42.813,10.831 C43.294,11.002 43.827,11.204 44.314,11.427 L45.329,9.932 C45.331,9.929 45.336,9.928 45.338,9.921 C47.191,7.196 50.339,4.093 55.141,2.054 C59.73,-0.001 66.85,0.472 70.341,3.217 C72.207,7.525 69.533,14.27 65.968,17.819 C62.341,21.568 58.316,23.389 55.108,24.144 C55.102,24.146 55.095,24.149 55.092,24.146 L53.402,24.541 C53.429,25.043 53.426,25.568 53.416,26.042 C53.302,31.41 48.202,33.734 44.051,34.125 Z M62.712625,14.0156667 L62.7126575,14.0157 C63.4507325,13.6963667 64.9025075,13.2150333 65.6867325,14.7890333 C65.8674325,15.1597 66.2649075,13.1950333 64.8193075,11.3413667 C64.8108575,11.3303667 64.8024075,11.3197 64.7939575,11.3093667 C64.8160575,11.2347 64.8365325,11.1587 64.8553825,11.0817 C65.5785075,8.22703333 63.8433325,4.81653333 60.9157325,3.00003333 C62.1809575,4.77936667 62.7591325,6.9297 62.2531075,8.82036667 C62.2063075,8.99836667 62.1507325,9.17003333 62.0873575,9.33536667 C62.0272325,9.2937 61.9524825,9.24703333 61.8556325,9.19103333 C61.8556325,9.19103333 58.9277075,7.33736667 55.7830075,4.07503333 C55.7108575,4.00103333 57.4821075,6.67003333 59.4698075,8.82036667 C58.5302325,8.26403333 55.891525,6.29936667 54.2288575,4.74236667 C54.44573,5.076 54.6626025,5.44673333 54.951885,5.74333333 C56.325335,7.55966667 58.168735,9.784 60.33746,11.4893333 C60.33811,11.4903333 60.33876,11.491 60.339735,11.492 C58.81516,12.4596667 56.648775,12.531 54.481935,11.4893333 C53.93977,11.23 53.433745,10.9333333 53,10.5626667 C53.90363,12.0453333 55.3132525,13.343 57.012125,14.0843333 C59.110325,15.0066667 61.19585,14.9143333 62.712625,14.0156667 Z" id="Combined-Shape" fill="#FFFFFF"></path>
                    <path d="M6.228,32.801 C6.175,32.768 6.026,32.622 5.885,32.464 C5.992,32.587 6.106,32.7 6.228,32.801 Z" id="Path-Copy-11" fill="#000000" transform="translate(6.385000, 32.964000) scale(-1, 1) rotate(-180.000000) translate(-6.385000, -32.964000) "></path>
                    <path d="M7.293,33.082 C6.96,32.82 6.639,32.534 6.228,32.127 C6.576,32.479 6.941,32.804 7.293,33.082 Z" id="Path-Copy-12" fill="#000000" transform="translate(6.760500, 32.627000) scale(-1, 1) rotate(-180.000000) translate(-6.760500, -32.627000) "></path>
                    <path d="M7.488,31.346 L7.49,31.348 C7.432,31.301 7.373,31.253 7.293,31.172 C7.354,31.237 7.42,31.292 7.488,31.346 Z" id="Path-Copy-13" fill="#000000" transform="translate(7.793000, 31.672000) scale(-1, 1) rotate(-180.000000) translate(-7.793000, -31.672000) "></path>
                    <path d="M8.394,31.688 L8.442,31.695 L7.572,31.06 L7.488,30.998 C7.784,31.237 8.086,31.468 8.394,31.688 Z" id="Path-Copy-14" fill="#000000" transform="translate(7.988000, 31.498000) scale(-1, 1) rotate(-180.000000) translate(-7.988000, -31.498000) "></path>
                    <path d="M16.927,26.883 L17.907,27.026 C17.58,26.994 17.254,26.954 16.929,26.906 L16.927,26.883 Z" id="Path-Copy-15" fill="#000000" transform="translate(17.427000, 27.383000) scale(-1, 1) rotate(-180.000000) translate(-17.427000, -27.383000) "></path>
                    <path d="M17.921,26.742 L17.912,26.741 L17.907,26.74 C17.911,26.741 17.916,26.741 17.921,26.742 Z" id="Path-Copy-16" fill="#000000" transform="translate(18.407000, 27.240000) scale(-1, 1) rotate(-180.000000) translate(-18.407000, -27.240000) "></path>
                    <path d="M53.391,23.543 L53.402,23.545 L53.391,23.543 Z" id="Path-Copy-17" fill="#000000" transform="translate(53.891000, 24.043000) scale(-1, 1) rotate(-180.000000) translate(-53.891000, -24.043000) "></path>
                </g>
                <text id="Rocket-Swift" font-family="IBMPlexSans-Bold, IBM Plex Sans" font-size="20" font-weight="bold" fill="#FFFFFF">
                    <tspan x="36" y="58">Rocket </tspan>
                    <tspan x="36" y="85">Swift</tspan>
                </text>
            </g>
        </g>
    </g>
</svg>