<?xml version="1.0" encoding="UTF-8"?>
<svg width="83px" height="44px" viewBox="0 0 83 44" version="1.1" xmlns="http://www.w3.org/2000/svg" xmlns:xlink="http://www.w3.org/1999/xlink">
    <!-- Generator: Sketch 43.2 (39069) - http://www.bohemiancoding.com/sketch -->
    <title>Group</title>
    <desc>Created with Sketch.</desc>
    <defs></defs>
    <g id="Page-1" stroke="none" stroke-width="1" fill="none" fill-rule="evenodd">
        <g id="rocket2-copy-2" transform="translate(-16.000000, -22.000000)" fill="#FFFFFF">
            <g id="Group" transform="translate(15.000000, 22.000000)">
                <path d="M15.6104645,18.0601602 C25.719164,12.2922168 35.672225,10.2960702 44.5314803,9.12057848 C43.3648684,12.1849055 43.738104,14.8636719 45.1838993,17.2726356 C39.6456786,17.2948757 27.7564173,19.2525185 21.0524596,21.8807156 C6.97364329,27.4023322 1.17750913,36.7616836 5.52109477,43.99583 C-1.25321461,40.527862 1.33332627,26.2042207 15.6104645,18.0601602 Z" id="Path"></path>
                <path d="M8.88259183,40.304651 C8.58410257,40.1626328 8.29059078,40.0142724 8.00085717,39.8576823 L8.01184588,39.8374525 L8.88259183,40.304651 Z" id="Path"></path>
                <path d="M20.3552091,42.5433246 C19.9056537,42.6721931 19.4574613,42.7797145 19.0129579,42.8649532 L19.0152838,42.8640175 L19.0010301,42.855453 L20.3552091,42.5433246 Z" id="Path"></path>
                <path d="M27.2730655,39.7081905 C27.2272566,39.7378308 27.1783648,39.7609521 27.129131,39.7827013 C26.8932366,39.9151205 27.0038887,39.8591105 27.2730655,39.7081905 Z" id="Path"></path>
                <path d="M0.515813824,13.2250439 C0.360934446,13.4730985 0.223198413,13.7314538 0.0547772889,14.1146586 C0.189896951,13.7946432 0.351139744,13.4893996 0.515813824,13.2250439 Z" id="Path"></path>
                <path d="M6.0025715,6.91014245 L6.00402916,6.90771651 L6.94019306,6.30688892 C6.62753191,6.48552214 6.32247068,6.67092303 6.02526602,6.86654762 L6.0025715,6.91014245 Z" id="Path"></path>
                <path d="M8.60132058,5.51266395 C8.44572052,5.59299838 8.25940583,5.69920967 8,5.8571673 C8.20382229,5.72764328 8.41501327,5.60721334 8.60132058,5.51266395 Z" id="Path"></path>
                <path d="M8.30158363,5.71638621 C8.21117992,5.75423022 8.11065204,5.80115725 8,5.8571673 C8.10979487,5.80064221 8.20466102,5.75731307 8.30158363,5.71638621 Z" id="Path"></path>
                <path d="M10.4345368,4.65044334 L10.4425823,4.67394374 L10.4350518,4.64958617 C10.3247493,4.69530653 10.2170182,4.742572 10,4.8571673 C10.136735,4.77716394 10.2852938,4.71243143 10.4345368,4.65044334 Z" id="Path"></path>
                <path d="M12.3722054,3.79533178 C11.91102,3.8830713 11.4537629,3.99954572 11,4.13746101 C11.454151,3.99889978 11.91102,3.8830713 12.3722054,3.79533178 Z" id="Path"></path>
                <path d="M45.3990487,23.8277235 L51.5844235,18.3310793 L48.9858452,17.487907 C47.0470497,14.4258217 47.0005091,11.5169306 48.4177313,8.72777726 L50.8651292,7.6060655 L43.8999173,2.76739501 C47.3876794,0.556097224 52.8162969,-0.719953031 56.2135694,3.42862537 C56.5381844,3.82112406 56.8915141,4.26667132 57.1947581,4.7063724 L58.8257925,3.96014999 C58.829034,3.95863363 58.8338242,3.96035723 58.8391048,3.95544733 C61.8145571,2.59677624 66.0913488,1.58355966 71.2417444,2.3238369 C76.2179469,2.94097345 82.0722631,7.00476518 83.6616149,11.1293409 C83.0630474,15.744047 77.3354976,20.090905 72.4743588,21.2679977 C67.4581895,22.5828748 63.0841116,22.057336 59.9528727,21.0476814 C59.9467166,21.0462918 59.9391946,21.0452361 59.9381556,21.0411478 L58.2899907,20.5069291 C58.0572054,20.9467069 57.7870125,21.3905657 57.5368248,21.7875562 C54.7028324,26.2830444 49.152037,25.6312665 45.3990487,23.8277235 Z M70.6263618,16.2657338 L70.6263943,16.2657671 C71.3644693,15.9464338 72.8162443,15.4651004 73.6004693,17.0391004 C73.7811693,17.4097671 74.1786443,15.4451004 72.7330443,13.5914338 C72.7245943,13.5804338 72.7161443,13.5697671 72.7076943,13.5594338 C72.7297943,13.4847671 72.7502693,13.4087671 72.7691193,13.3317671 C73.4922443,10.4771004 71.7570693,7.06660043 68.8294693,5.25010043 C70.0946943,7.02943376 70.6728693,9.17976709 70.1668443,11.0704338 C70.1200443,11.2484338 70.0644693,11.4201004 70.0010943,11.5854338 C69.9409693,11.5437671 69.8662193,11.4971004 69.7693693,11.4411004 C69.7693693,11.4411004 66.8414443,9.58743376 63.6967443,6.32510043 C63.6245943,6.25110043 65.3958443,8.92010043 67.3835443,11.0704338 C66.4439693,10.5141004 63.8052618,8.54943376 62.1425943,6.99243376 C62.3594668,7.32606709 62.5763393,7.69680043 62.8656218,7.99340043 C64.2390718,9.80973376 66.0824718,12.0340671 68.2511968,13.7394004 C68.2518468,13.7404004 68.2524968,13.7410671 68.2534718,13.7420671 C66.7288968,14.7097338 64.5625118,14.7810671 62.3956718,13.7394004 C61.8535068,13.4800671 61.3474818,13.1834004 60.9137368,12.8127338 C61.8173668,14.2954004 63.2269893,15.5930671 64.9258618,16.3344004 C67.0240618,17.2567338 69.1095868,17.1644004 70.6263618,16.2657338 Z" id="Combined-Shape"></path>
                <path d="M13.4675762,3.74495998 C13.4051501,3.74594948 13.2022366,3.79435524 13,3.8571673 C13.1550666,3.8068448 13.310983,3.76869923 13.4675762,3.74495998 Z" id="Path"></path>
                <path d="M14.3490287,3.5536106 C13.946073,3.61714836 13.5404146,3.70706138 13,3.8571673 C13.4613819,3.72373854 13.9225402,3.62167457 14.3490287,3.5536106 Z" id="Path"></path>
                <path d="M15.2567642,3.80845261 C15.1706648,3.81971706 15.0857647,3.83286875 15,3.8571673 C15.1102915,3.8289398 15.1855862,3.81818301 15.2595087,3.80776836 L15.2567642,3.80845261 Z" id="Path"></path>
                <path d="M16.1319698,3.73234636 L16.1767191,3.75106802 L15.1039344,3.84728613 L15,3.8571673 C15.3768156,3.80475559 15.7546539,3.76229144 16.1319698,3.73234636 Z" id="Path"></path>
                <path d="M25,4.8571673 L25.9136744,5.23932969 C25.6168995,5.09834159 25.3168614,4.96472587 25.0135602,4.83848253 L25,4.8571673 Z" id="Path"></path>
                <path d="M26.0130304,4.8626635 L26.0048009,4.85888532 L26,4.8571673 C26.0039437,4.85837029 26.0082295,4.86094548 26.0130304,4.8626635 Z" id="Path"></path>
                <path d="M58,20.8571673 L58.0104589,20.8611184 L58,20.8571673 Z" id="Path"></path>
            </g>
        </g>
    </g>
</svg>